<?xml version="1.0" standalone="no"?>
<!DOCTYPE svg PUBLIC "-//W3C//DTD SVG 20010904//EN"
 "http://www.w3.org/TR/2001/REC-SVG-20010904/DTD/svg10.dtd">
<svg version="1.0" xmlns="http://www.w3.org/2000/svg"
 width="512.000000pt" height="512.000000pt" viewBox="0 0 512.000000 512.000000"
 preserveAspectRatio="xMidYMid meet">
<metadata>
Created by potrace 1.11, written by Peter Selinger 2001-2013
</metadata>
<g transform="translate(0.000000,512.000000) scale(0.100000,-0.100000)"
fill="#000000" stroke="none">
<path d="M245 5111 c-107 -26 -193 -107 -229 -216 -15 -47 -16 -235 -14 -2355
2 -1695 6 -2310 14 -2325 7 -11 18 -33 25 -49 22 -48 85 -105 147 -134 l57
-27 2320 0 2320 0 52 27 c84 45 138 107 167 192 15 46 16 243 14 2355 l-3
2306 -25 49 c-43 85 -107 140 -194 169 -45 15 -241 17 -2335 16 -1257 -1
-2299 -4 -2316 -8z"/>
</g>
</svg>
